<?xml version="1.0" encoding="utf-8"?>
<!-- Generator: Adobe Illustrator 25.1.0, SVG Export Plug-In . SVG Version: 6.00 Build 0)  -->
<svg version="1.1" id="Background" xmlns="http://www.w3.org/2000/svg" xmlns:xlink="http://www.w3.org/1999/xlink" x="0px" y="0px"
	 viewBox="0 0 750 500" style="enable-background:new 0 0 750 500;" xml:space="preserve">
<style type="text/css">
	.st0{fill:none;}
	.st1{fill:#FFFFFF;}
	.st2{clip-path:url(#SVGID_2_);fill:url(#SVGID_3_);}
	.st3{clip-path:url(#SVGID_2_);}
	.st4{opacity:0.55;fill:url(#SVGID_4_);}
	.st5{opacity:0.59;fill:url(#SVGID_5_);}
	.st6{fill:url(#SVGID_6_);}
	.st7{fill:url(#SVGID_7_);}
	.st8{fill:url(#SVGID_8_);}
	.st9{opacity:0.78;fill:url(#SVGID_9_);}
	.st10{opacity:0.68;fill:url(#SVGID_10_);}
	.st11{opacity:0.92;fill:url(#SVGID_11_);}
	.st12{opacity:0.78;fill:url(#SVGID_12_);}
	.st13{opacity:0.63;fill:none;stroke:url(#SVGID_13_);stroke-width:2.1316;stroke-miterlimit:10;}
	.st14{opacity:0.92;fill:url(#SVGID_14_);}
	.st15{opacity:0.92;fill:url(#SVGID_15_);}
	.st16{opacity:0.92;fill:url(#SVGID_16_);}
	.st17{opacity:0.92;fill:url(#SVGID_17_);}
	.st18{opacity:0.49;fill:url(#SVGID_18_);}
	.st19{fill:url(#SVGID_19_);}
	.st20{fill:url(#SVGID_20_);}
	.st21{fill:url(#SVGID_21_);}
	.st22{opacity:0.78;fill:url(#SVGID_22_);}
	.st23{opacity:0.4;fill:url(#SVGID_23_);}
	.st24{opacity:0.92;fill:url(#SVGID_24_);}
	.st25{opacity:0.78;fill:url(#SVGID_25_);}
	.st26{opacity:0.63;fill:none;stroke:url(#SVGID_26_);stroke-width:2.1451;stroke-miterlimit:10;}
	.st27{opacity:0.92;fill:url(#SVGID_27_);}
	.st28{opacity:0.92;fill:url(#SVGID_28_);}
	.st29{opacity:0.92;fill:url(#SVGID_29_);}
	.st30{opacity:0.47;fill:url(#SVGID_30_);}
	.st31{opacity:0.47;fill:url(#SVGID_31_);}
	.st32{opacity:0.47;fill:url(#SVGID_32_);}
	.st33{opacity:0.47;fill:url(#SVGID_33_);}
	.st34{fill:none;stroke:#FFFFFF;stroke-width:0.9069;stroke-miterlimit:10;}
</style>
<pattern  x="-182" y="-1323" width="18.99" height="18.74" patternUnits="userSpaceOnUse" id="Unnamed_Pattern_3" viewBox="18.99 -24.99 18.99 18.74" style="overflow:visible;">
	<g>
		<rect x="18.99" y="-24.99" class="st0" width="18.99" height="18.74"/>
		<polygon class="st1" points="37.99,-6.25 18.99,0 18.99,-2 37.99,-8.25 		"/>
		<polygon class="st1" points="19,-6.25 0,0 0,-2 19,-8.25 		"/>
		<polygon class="st1" points="37.99,-12.5 18.99,-6.25 18.99,-8.25 37.99,-14.5 		"/>
		<polygon class="st1" points="19,-12.5 0,-6.25 0,-8.25 19,-14.5 		"/>
		<polygon class="st1" points="37.99,-18.74 18.99,-12.49 18.99,-14.49 37.99,-20.74 		"/>
		<polygon class="st1" points="19,-18.74 0,-12.49 0,-14.49 19,-20.74 		"/>
		<polygon class="st1" points="37.99,-24.99 18.99,-18.74 18.99,-20.74 37.99,-26.99 		"/>
		<polygon class="st1" points="19,-24.99 0,-18.74 0,-20.74 19,-26.99 		"/>
	</g>
</pattern>
<pattern  x="-182" y="-1323" width="7.83" height="10" patternUnits="userSpaceOnUse" id="Unnamed_Pattern_4" viewBox="0 -12.5 7.83 10" style="overflow:visible;">
	<g>
		<rect x="0" y="-12.5" class="st0" width="7.83" height="10"/>
		<circle class="st1" cx="5.42" cy="-1.5" r="1.5"/>
		<circle class="st1" cx="1.5" cy="-6.5" r="1.5"/>
		<circle class="st1" cx="5.42" cy="-11.5" r="1.5"/>
	</g>
</pattern>
<g>
	<defs>
		<rect id="SVGID_1_" width="750" height="500"/>
	</defs>
	<clipPath id="SVGID_2_">
		<use xlink:href="#SVGID_1_"  style="overflow:visible;"/>
	</clipPath>
	
		<radialGradient id="SVGID_3_" cx="378.9998" cy="263" r="415.0009" gradientTransform="matrix(1 0 0 0.7907 0 55.0354)" gradientUnits="userSpaceOnUse">
		<stop  offset="0" style="stop-color:#170036"/>
		<stop  offset="1" style="stop-color:#170036"/>
	</radialGradient>
	<rect class="st2" width="750" height="500"/>
	<g class="st3">
		<linearGradient id="SVGID_4_" gradientUnits="userSpaceOnUse" x1="355.5221" y1="259.2558" x2="373.2657" y2="409.717">
			<stop  offset="0" style="stop-color:#310073"/>
			<stop  offset="1" style="stop-color:#170036"/>
		</linearGradient>
		<path class="st4" d="M-56.7,456.31c30.63,34.49,85.1,37.48,128.4,21.56c43.29-15.92,78.64-42.23,116.3-68.87
			c54.78-38.74,93.07-75.22,160-80c36.29-2.59,70.65,11.66,105.34,19.86c32.58,7.7,68.26,5.9,97.87-10.81
			c23.17-13.07,40.83-34.01,56.14-55.76s28.89-44.85,46.55-64.74c15.38-17.32,34.38-32.33,56.74-38.36
			c15.77-4.26,32.6-3.75,48.33,0.47c6.8,1.82,13.31,4.27,19.43,7.74c3.15,1.78,17.56,9.58,17.6,13.6c0,0,3.05,315.5,3.05,315.5
			H-61.5L-56.7,456.31z"/>
		<g>
			<g>
				<g>
					
						<pattern  id="SVGID_5_" xlink:href="#Unnamed_Pattern_4" patternTransform="matrix(-0.9258 -0.0119 0.0119 -0.9258 -14452.7217 -11741.7197)">
					</pattern>
					<path class="st5" d="M736.89,249.3c-48.41,4.82-94.89,24.43-130.85,54.62c-29.28,24.58-52.32,56.11-86.47,74.59
						c-80,43.29-172.01-0.87-256.65,1.94c-226.24,7.53-310.86,184-310.86,184l827.84,63.05c0,0,6.69-23.84,16.58-59.09V250.1
						C776.76,247.6,756.6,247.33,736.89,249.3z"/>
					<linearGradient id="SVGID_6_" gradientUnits="userSpaceOnUse" x1="401.035" y1="355.8373" x2="433.3562" y2="475.4434">
						<stop  offset="0" style="stop-color:#310073"/>
						<stop  offset="1" style="stop-color:#170036"/>
					</linearGradient>
					<path class="st6" d="M709.69,288.89c-37.03,4-72.57,20.27-100.08,45.34c-22.39,20.4-40.01,46.57-66.13,61.91
						c-61.18,35.93-131.55-0.72-196.28,1.61C174.18,404,181,507,77,518c-63.67,6.73,665.58,84.81,665.58,84.81
						s5.12-19.79,12.68-49.05V289.55C740.19,287.48,724.77,287.26,709.69,288.89z"/>
					<linearGradient id="SVGID_7_" gradientUnits="userSpaceOnUse" x1="478.8232" y1="407.2633" x2="527.0242" y2="537.5844">
						<stop  offset="0" style="stop-color:#3C2D7A"/>
						<stop  offset="0.1533" style="stop-color:#342769"/>
						<stop  offset="0.5125" style="stop-color:#221A46"/>
						<stop  offset="0.8076" style="stop-color:#181331"/>
						<stop  offset="1" style="stop-color:#141029"/>
					</linearGradient>
					<path class="st7" d="M743.22,316.63c-21.31-3.96-44.73-1.34-65.09,5.95c-31.12,11.15-56.4,31.63-79.49,52.82
						c-23.09,21.19-45.01,43.72-72.36,60.72c-32.75,20.35-72.68,31.97-113.01,32.88c-25.4,0.57-51.01-2.97-76.1,0.46
						c-39.59,5.41-75.14,29.25-91.01,61.04v53.24h497.05V316.63z"/>
				</g>
				<linearGradient id="SVGID_8_" gradientUnits="userSpaceOnUse" x1="438.3595" y1="351.5357" x2="520.1584" y2="542.3151">
					<stop  offset="0" style="stop-color:#E221AB"/>
					<stop  offset="0.1162" style="stop-color:#B8219D"/>
					<stop  offset="0.3021" style="stop-color:#7B2188"/>
					<stop  offset="0.4386" style="stop-color:#55217B"/>
					<stop  offset="0.5101" style="stop-color:#462176"/>
					<stop  offset="1" style="stop-color:#462176;stop-opacity:0"/>
				</linearGradient>
				<path class="st8" d="M675.74,388.83c-25.53,17.63-64.51,20.87-98.61,22.52c-34.1,1.65-70,2.41-99.32,16.04
					c-17.42,8.1-32.54,20.82-48.24,31.56c-36.05,24.67-79.63,20.3-121.06,19.93c-33.7-0.3-65.1,7.01-88.71,32.46
					c-15.59,16.8-27.15,37.94-34.22,59.7c-0.43,1.31-0.85,2.62-1.21,3.95H757V278.83C709.74,277.83,717.74,359.83,675.74,388.83z"/>
				<linearGradient id="SVGID_9_" gradientUnits="userSpaceOnUse" x1="479.9154" y1="343.2031" x2="528.8121" y2="653.9849">
					<stop  offset="0" style="stop-color:#E221AB"/>
					<stop  offset="0.5101" style="stop-color:#462176"/>
					<stop  offset="1" style="stop-color:#462176;stop-opacity:0"/>
				</linearGradient>
				<path class="st9" d="M755.14,364.51c-1.48-1.3-2.6-9.75-5.81-9.06c-16.16,3.51-30.4,17.88-39.45,34.45
					c-6.31,11.55-19.76,48.6-62.61,46.04c-17.32-1.04-91.13-23.68-107.8-26.44c-50.58-8.38-92.73,2.71-126.58,34.15
					c-25.5,23.68-49.7,47.79-74.98,71.39c-25.15,23.48-57.21,43.97-92.91,44.04V582h507.77c0.19-12.35,0.39-24.71,0.58-37.06
					c0.42-26.6,0.84-53.2,1.26-79.8c0.4-25.22,0.79-50.44,1.19-75.66c0.11-7.21,0.23-14.42,0.34-21.63
					C756.17,366.13,755.8,365.09,755.14,364.51z"/>
				<linearGradient id="SVGID_10_" gradientUnits="userSpaceOnUse" x1="511.1086" y1="363.5974" x2="551.132" y2="503.679">
					<stop  offset="0" style="stop-color:#FFFFFF"/>
					<stop  offset="1" style="stop-color:#FFFFFF;stop-opacity:0"/>
				</linearGradient>
				<path class="st10" d="M806,584.85V393.59c-0.49-0.33-1.03-0.48-1.65-0.37c-18.28,3.51-34.4,17.89-44.63,34.45
					c-7.14,11.56-22.36,48.6-70.84,46.04c-19.59-1.04-103.11-23.68-121.97-26.44c-57.23-8.38-104.92,2.71-143.23,34.16
					c-28.85,23.68-56.24,47.79-84.84,71.4c-14.96,12.35-32.09,23.86-50.84,32.02H806z"/>
				<linearGradient id="SVGID_11_" gradientUnits="userSpaceOnUse" x1="533.654" y1="462.7146" x2="686.5064" y2="687.9233">
					<stop  offset="0" style="stop-color:#E221AB"/>
					<stop  offset="0.2857" style="stop-color:#E221AB"/>
					<stop  offset="0.3735" style="stop-color:#DB21A9;stop-opacity:0.8771"/>
					<stop  offset="0.5007" style="stop-color:#C821A2;stop-opacity:0.6991"/>
					<stop  offset="0.6517" style="stop-color:#A82197;stop-opacity:0.4876"/>
					<stop  offset="0.8212" style="stop-color:#7C2188;stop-opacity:0.2503"/>
					<stop  offset="1" style="stop-color:#462176;stop-opacity:0"/>
				</linearGradient>
				<path class="st11" d="M755.26,446.79c-12.32,16.02-35.12,24.99-56.4,26.32c-21.06,1.32-42.01-2.74-62.95-5.11
					c-44.97-5.09-93.24-1.72-131.15,20.58c-40.41,23.76-66.1,67.07-111.74,81.29c-3.46,1.08-7.42,1.9-10.9,3.31
					c-1.57,0.63-3.03,1.38-4.31,2.33c1.29,1.18,1.29,0.58,2.67,1.05c7,2.36,20.22,0,27.62,0h347.18V446.79z"/>
				<linearGradient id="SVGID_12_" gradientUnits="userSpaceOnUse" x1="524.8841" y1="458.0947" x2="573.9554" y2="530.3951">
					<stop  offset="0" style="stop-color:#FFFFFF"/>
					<stop  offset="1" style="stop-color:#FFFFFF;stop-opacity:0"/>
				</linearGradient>
				<path class="st12" d="M755.26,462.75c-12.92,11.94-32.23,18.65-50.43,19.79c-21.06,1.32-42.01-2.74-62.95-5.11
					c-44.97-5.09-93.24-1.72-131.15,20.58c-40.41,23.76-66.1,67.07-111.74,81.29c-3.46,1.08-7.42,1.9-10.9,3.31
					c-1.57,0.63-3.03,1.38-4.31,2.33c1.29,1.18,1.29,0.58,2.67,1.05c7,2.36,20.22,0,27.62,0h341.21V462.75z"/>
				
					<linearGradient id="SVGID_13_" gradientUnits="userSpaceOnUse" x1="558.259" y1="432.2719" x2="558.259" y2="569.8901" gradientTransform="matrix(0.9916 0.0649 -0.0653 0.9979 38.5774 -34.8258)">
					<stop  offset="0" style="stop-color:#F40076;stop-opacity:0.1"/>
					<stop  offset="0.3543" style="stop-color:#E221AB"/>
					<stop  offset="0.9964" style="stop-color:#F3A4DD"/>
				</linearGradient>
				<path class="st13" d="M755.73,445.87c-13.76,20.13-41.84,30.03-67.29,29.98c-23.18-0.04-45.84-6.07-68.62-10.22
					c-48.91-8.91-102.06-8.61-145.23,13.59c-40.84,21-70.12,60.01-111.88,77.34"/>
			</g>
			<linearGradient id="SVGID_14_" gradientUnits="userSpaceOnUse" x1="632.4746" y1="334.3333" x2="632.4746" y2="347.0257">
				<stop  offset="0" style="stop-color:#F29DDA"/>
				<stop  offset="0.2927" style="stop-color:#E178C8"/>
				<stop  offset="1" style="stop-color:#B8219D"/>
			</linearGradient>
			<circle class="st14" cx="632.47" cy="344.59" r="8.91"/>
			<linearGradient id="SVGID_15_" gradientUnits="userSpaceOnUse" x1="254.5771" y1="448.9427" x2="254.5771" y2="477.5671">
				<stop  offset="0" style="stop-color:#E221AB"/>
				<stop  offset="0.1728" style="stop-color:#BD219E"/>
				<stop  offset="0.4407" style="stop-color:#8A218D"/>
				<stop  offset="0.6747" style="stop-color:#652181"/>
				<stop  offset="0.863" style="stop-color:#4E2179"/>
				<stop  offset="0.9822" style="stop-color:#462176"/>
			</linearGradient>
			<circle class="st15" cx="254.58" cy="457.85" r="8.91"/>
			<linearGradient id="SVGID_16_" gradientUnits="userSpaceOnUse" x1="461.6735" y1="445.5814" x2="461.6735" y2="469.3487">
				<stop  offset="0" style="stop-color:#F29DDA"/>
				<stop  offset="0.2927" style="stop-color:#E178C8"/>
				<stop  offset="1" style="stop-color:#B8219D"/>
			</linearGradient>
			<circle class="st16" cx="461.67" cy="456.06" r="8.91"/>
			<linearGradient id="SVGID_17_" gradientUnits="userSpaceOnUse" x1="673.7401" y1="418.0667" x2="673.7401" y2="458.7436">
				<stop  offset="0" style="stop-color:#E221AB"/>
				<stop  offset="0.2857" style="stop-color:#E221AB"/>
				<stop  offset="0.3735" style="stop-color:#DB21A9;stop-opacity:0.8771"/>
				<stop  offset="0.5007" style="stop-color:#C821A2;stop-opacity:0.6991"/>
				<stop  offset="0.6517" style="stop-color:#A82197;stop-opacity:0.4876"/>
				<stop  offset="0.8212" style="stop-color:#7C2188;stop-opacity:0.2503"/>
				<stop  offset="1" style="stop-color:#462176;stop-opacity:0"/>
			</linearGradient>
			<circle class="st17" cx="673.74" cy="430.73" r="12.66"/>
		</g>
	</g>
	<g class="st3">
		<g>
			<g>
				<g>
					<pattern  id="SVGID_18_" xlink:href="#Unnamed_Pattern_4" patternTransform="matrix(1 0 0 1 137.8323 0)">
					</pattern>
					<path class="st18" d="M-10.1,223.48c38.11-4.12,74.7-20.87,103.01-46.66c23.05-21,41.18-47.93,68.07-63.72
						c62.97-36.99,135.41,0.74,202.03-1.66C541.1,105,607.71-45.77,607.71-45.77L-43.95-99.64c0,0-5.26,20.37-13.05,50.48v271.95
						C-41.49,224.93-25.61,225.15-10.1,223.48z"/>
					
						<linearGradient id="SVGID_19_" gradientUnits="userSpaceOnUse" x1="-4280.8481" y1="-15.4954" x2="-4217.9556" y2="123.6937" gradientTransform="matrix(-1 0 0 -1 -4013.5117 156.7304)">
						<stop  offset="0" style="stop-color:#3C2D7A"/>
						<stop  offset="0.1533" style="stop-color:#342769"/>
						<stop  offset="0.5125" style="stop-color:#221A46"/>
						<stop  offset="0.8076" style="stop-color:#181331"/>
						<stop  offset="1" style="stop-color:#141029"/>
					</linearGradient>
					<path class="st19" d="M55.54,198.6c29.55-30.6,46.65-72.85,84.07-94.48c26.75-15.46,59.73-17.66,91.08-16.36
						c31.35,1.3,64.74,3.12,96.06,1.68C494.91,81.7,536.26-81.16,536.26-81.16H-82.11V247.4C-31.61,251.56,21.26,234.09,55.54,198.6
						z"/>
					
						<linearGradient id="SVGID_20_" gradientUnits="userSpaceOnUse" x1="-4203.6992" y1="42.0298" x2="-4168.1089" y2="138.2553" gradientTransform="matrix(-1 0 0 -1 -4013.5117 156.7304)">
						<stop  offset="0" style="stop-color:#3C2D7A"/>
						<stop  offset="0.1533" style="stop-color:#342769"/>
						<stop  offset="0.5125" style="stop-color:#221A46"/>
						<stop  offset="0.8076" style="stop-color:#181331"/>
						<stop  offset="1" style="stop-color:#141029"/>
					</linearGradient>
					<path class="st20" d="M-82.11,207.56c21.93,4.07,46.04,1.38,67-6.13c32.03-11.47,58.05-32.56,81.82-54.37
						c23.76-21.81,46.33-45,74.47-62.49c33.71-20.95,74.8-32.91,116.32-33.84c26.14-0.59,52.5,3.06,78.33-0.47
						c40.75-5.57,77.34-30.11,93.67-62.82v-54.8H-82.11V207.56z"/>
				</g>
				
					<linearGradient id="SVGID_21_" gradientUnits="userSpaceOnUse" x1="-4232.6987" y1="57.2483" x2="-4202.0137" y2="202.1112" gradientTransform="matrix(-1 0 0 -1 -4013.5117 156.7304)">
					<stop  offset="0" style="stop-color:#E221AB"/>
					<stop  offset="0.0499" style="stop-color:#CA21A3"/>
					<stop  offset="0.1584" style="stop-color:#9B2193"/>
					<stop  offset="0.2621" style="stop-color:#762186"/>
					<stop  offset="0.358" style="stop-color:#5C217D"/>
					<stop  offset="0.4436" style="stop-color:#4C2178"/>
					<stop  offset="0.5101" style="stop-color:#462176"/>
					<stop  offset="1" style="stop-color:#462176;stop-opacity:0"/>
				</linearGradient>
				<path class="st21" d="M-40.6,174.18c13.5-19.19,23.77-40.6,44.76-55.16c26.23-18.21,63.76-22.03,98.86-23.73
					c35.1-1.7,72.05-2.48,102.23-16.51c17.93-8.33,33.49-21.42,49.65-32.49c46.18-31.6,99.16-17.9,150.67-21.3
					c76.61-5.05,101.71-98.14,101.71-98.14H-82.11v282.99C-64.34,202.43-50.56,188.35-40.6,174.18z"/>
				
					<linearGradient id="SVGID_22_" gradientUnits="userSpaceOnUse" x1="-4216.1602" y1="10.2577" x2="-4165.8359" y2="330.1142" gradientTransform="matrix(-1 0 0 -1 -4013.5117 156.7304)">
					<stop  offset="0" style="stop-color:#E221AB"/>
					<stop  offset="0.5101" style="stop-color:#462176"/>
					<stop  offset="1" style="stop-color:#462176;stop-opacity:0"/>
				</linearGradient>
				<path class="st22" d="M-68.56,144.91c1.47,1.34,2.58,10.04,5.77,9.32c16.07-3.61,30.23-18.41,39.23-35.45
					c6.28-11.89,19.65-50.02,62.26-47.38c17.22,1.07,90.62,24.37,107.2,27.21c50.3,8.63,92.21-2.79,125.88-35.15
					c25.35-24.37,49.43-49.19,74.57-73.48c25.01-24.17,56.89-45.25,92.4-45.33v-23.58H-66.21c-0.19,12.71-0.39,25.43-0.58,38.14
					c-0.42,27.38-0.83,54.76-1.25,82.14c-0.39,25.96-0.79,51.92-1.18,77.88c-0.11,7.42-0.23,14.84-0.34,22.26
					C-69.59,143.25-69.22,144.31-68.56,144.91z"/>
				<linearGradient id="SVGID_23_" gradientUnits="userSpaceOnUse" x1="170.3149" y1="104.5391" x2="148.315" y2="11.8725">
					<stop  offset="0" style="stop-color:#FFFFFF"/>
					<stop  offset="1" style="stop-color:#FFFFFF;stop-opacity:0"/>
				</linearGradient>
				<path class="st23" d="M-82.11-84.15v196.86c0.44,0.34,0.92,0.5,1.47,0.38c16.3-3.62,30.68-18.41,39.81-35.46
					c6.37-11.89,19.94-50.03,63.18-47.39c17.47,1.07,91.96,24.37,108.79,27.21c51.04,8.63,93.57-2.79,127.74-35.16
					c25.73-24.37,50.16-49.19,75.67-73.49c13.34-12.71,28.62-24.56,45.34-32.96H-82.11z"/>
				
					<linearGradient id="SVGID_24_" gradientUnits="userSpaceOnUse" x1="-4159.4912" y1="115.1691" x2="-4002.1636" y2="346.9719" gradientTransform="matrix(-1 0 0 -1 -4013.5117 156.7304)">
					<stop  offset="0" style="stop-color:#E221AB"/>
					<stop  offset="0.2929" style="stop-color:#E221AB"/>
					<stop  offset="0.3798" style="stop-color:#DB21A9;stop-opacity:0.8771"/>
					<stop  offset="0.5056" style="stop-color:#C821A2;stop-opacity:0.6991"/>
					<stop  offset="0.6552" style="stop-color:#A82197;stop-opacity:0.4876"/>
					<stop  offset="0.823" style="stop-color:#7C2188;stop-opacity:0.2503"/>
					<stop  offset="1" style="stop-color:#462176;stop-opacity:0"/>
				</linearGradient>
				<path class="st24" d="M-82.11,57.95c12.68-16.49,36.15-25.72,58.05-27.09c21.68-1.35,43.24,2.82,64.8,5.26
					c46.29,5.23,95.97,1.77,134.99-21.18c41.59-24.46,68.04-69.03,115.01-83.67c3.56-1.11,7.64-1.95,11.22-3.4
					c1.61-0.65,3.12-1.42,4.44-2.4c-1.33-1.22-1.33-0.6-2.75-1.08c-7.21-2.43-20.81,0-28.43,0H-82.11V57.95z"/>
				
					<linearGradient id="SVGID_25_" gradientUnits="userSpaceOnUse" x1="-4166.6299" y1="115.093" x2="-4116.1221" y2="189.5104" gradientTransform="matrix(-1 0 0 -1 -4013.5117 156.7304)">
					<stop  offset="0" style="stop-color:#FFFFFF"/>
					<stop  offset="1" style="stop-color:#FFFFFF;stop-opacity:0"/>
				</linearGradient>
				<path class="st25" d="M-84,36.84c13.3-12.29,33.18-19.2,51.9-20.37c21.68-1.35,43.24,2.82,64.8,5.26
					c46.29,5.24,95.97,1.77,134.99-21.18c41.59-24.46,68.04-69.03,115.01-83.67c3.56-1.11,7.64-1.95,11.22-3.4
					c1.61-0.65,3.12-1.42,4.44-2.4c-1.33-1.22-1.33-0.6-2.75-1.08c-7.21-2.43-20.81,0-28.43,0H-84V36.84z"/>
				
					<linearGradient id="SVGID_26_" gradientUnits="userSpaceOnUse" x1="-4132.4478" y1="84.3096" x2="-4132.4478" y2="225.9539" gradientTransform="matrix(-0.9989 -0.0461 0.0461 -0.9989 -4015.6353 -33.7453)">
					<stop  offset="0" style="stop-color:#F40076;stop-opacity:0.1"/>
					<stop  offset="0.3543" style="stop-color:#E221AB"/>
					<stop  offset="0.9964" style="stop-color:#F3A4DD"/>
				</linearGradient>
				<path class="st26" d="M-84.01,62.75c13.92-20.98,42.98-31.71,69.5-32.15c24.15-0.4,47.89,5.37,71.72,9.2
					c58.86,9.47,98.83,10.99,151.07-16.78c42.13-22.39,71.84-63.1,115-81.75"/>
			</g>
			
				<linearGradient id="SVGID_27_" gradientUnits="userSpaceOnUse" x1="-4048.7039" y1="5.2328" x2="-4048.7039" y2="30.7431" gradientTransform="matrix(-1 0 0 -1 -4013.5117 156.7304)">
				<stop  offset="0" style="stop-color:#E221AB"/>
				<stop  offset="0.1728" style="stop-color:#BD219E"/>
				<stop  offset="0.4407" style="stop-color:#8A218D"/>
				<stop  offset="0.6747" style="stop-color:#652181"/>
				<stop  offset="0.863" style="stop-color:#4E2179"/>
				<stop  offset="0.9822" style="stop-color:#462176"/>
			</linearGradient>
			<circle class="st27" cx="35.19" cy="142.33" r="9.17"/>
			
				<linearGradient id="SVGID_28_" gradientUnits="userSpaceOnUse" x1="-4139.9404" y1="32.2659" x2="-4139.9404" y2="50.8739" gradientTransform="matrix(-1 0 0 -1 -4013.5117 156.7304)">
				<stop  offset="0" style="stop-color:#E221AB"/>
				<stop  offset="0.1728" style="stop-color:#BD219E"/>
				<stop  offset="0.4407" style="stop-color:#8A218D"/>
				<stop  offset="0.6747" style="stop-color:#652181"/>
				<stop  offset="0.863" style="stop-color:#4E2179"/>
				<stop  offset="0.9822" style="stop-color:#462176"/>
			</linearGradient>
			<circle class="st28" cx="126.43" cy="118.67" r="5.79"/>
			<linearGradient id="SVGID_29_" gradientUnits="userSpaceOnUse" x1="327.0737" y1="70.0762" x2="321.3111" y2="42.0317">
				<stop  offset="0" style="stop-color:#F29DDA"/>
				<stop  offset="0.1317" style="stop-color:#E785CE"/>
				<stop  offset="0.4042" style="stop-color:#D35AB9"/>
				<stop  offset="0.6495" style="stop-color:#C43BAA"/>
				<stop  offset="0.8564" style="stop-color:#BB28A0"/>
				<stop  offset="1" style="stop-color:#B8219D"/>
			</linearGradient>
			<circle class="st29" cx="323.87" cy="54.47" r="9.17"/>
		</g>
	</g>
	<g class="st3">
		<pattern  id="SVGID_30_" xlink:href="#Unnamed_Pattern_3" patternTransform="matrix(1.1154 0 0 1.1154 1196.1013 702.7794)">
		</pattern>
		<circle class="st30" cx="695" cy="188" r="29"/>
		<g>
			<pattern  id="SVGID_31_" xlink:href="#Unnamed_Pattern_3" patternTransform="matrix(1 0 0 1 273.1761 1.3)">
			</pattern>
			<circle class="st31" cx="354" cy="435" r="26"/>
			<pattern  id="SVGID_32_" xlink:href="#Unnamed_Pattern_3" patternTransform="matrix(1 0 0 1 261.0192 21.1765)">
			</pattern>
			<circle class="st32" cx="38" cy="230" r="26"/>
			<pattern  id="SVGID_33_" xlink:href="#Unnamed_Pattern_3" patternTransform="matrix(1 0 0 1 277.2544 11.6149)">
			</pattern>
			<circle class="st33" cx="510" cy="108" r="26"/>
		</g>
	</g>
	<g class="st3">
		<g>
			<g>
				<g>
					<path class="st34" d="M-43,382.5c4.37,0,4.37,8,8.75,8c4.37,0,4.37-8,8.75-8c4.37,0,4.37,8,8.75,8c4.37,0,4.37-8,8.75-8
						c4.37,0,4.37,8,8.75,8c4.37,0,4.37-8,8.75-8c4.38,0,4.38,8,8.75,8c4.37,0,4.37-8,8.75-8c4.37,0,4.37,8,8.75,8s4.37-8,8.75-8
						c4.37,0,4.37,8,8.75,8c4.38,0,4.38-8,8.75-8c4.38,0,4.38,8,8.75,8c4.38,0,4.38-8,8.75-8c4.38,0,4.38,8,8.76,8
						c4.38,0,4.38-8,8.76-8"/>
				</g>
			</g>
			<g>
				<g>
					<path class="st34" d="M-43,395.5c4.37,0,4.37,8,8.75,8c4.37,0,4.37-8,8.75-8c4.37,0,4.37,8,8.75,8c4.37,0,4.37-8,8.75-8
						c4.37,0,4.37,8,8.75,8c4.37,0,4.37-8,8.75-8c4.38,0,4.38,8,8.75,8c4.37,0,4.37-8,8.75-8c4.37,0,4.37,8,8.75,8s4.37-8,8.75-8
						c4.37,0,4.37,8,8.75,8c4.38,0,4.38-8,8.75-8c4.38,0,4.38,8,8.75,8c4.38,0,4.38-8,8.75-8c4.38,0,4.38,8,8.76,8
						c4.38,0,4.38-8,8.76-8"/>
				</g>
			</g>
		</g>
		<g>
			<g>
				<path class="st34" d="M726.5-41c0,4.37-8,4.37-8,8.75c0,4.37,8,4.37,8,8.75c0,4.37-8,4.37-8,8.75c0,4.37,8,4.37,8,8.75
					c0,4.37-8,4.37-8,8.75c0,4.37,8,4.37,8,8.75c0,4.38-8,4.38-8,8.75c0,4.37,8,4.37,8,8.75c0,4.37-8,4.37-8,8.75s8,4.37,8,8.75
					c0,4.37-8,4.37-8,8.75c0,4.38,8,4.38,8,8.75c0,4.38-8,4.38-8,8.75c0,4.38,8,4.38,8,8.75c0,4.38-8,4.38-8,8.76
					c0,4.38,8,4.38,8,8.76"/>
			</g>
		</g>
		<g>
			<g>
				<path class="st34" d="M711.5-41c0,4.37-8,4.37-8,8.75c0,4.37,8,4.37,8,8.75c0,4.37-8,4.37-8,8.75c0,4.37,8,4.37,8,8.75
					c0,4.37-8,4.37-8,8.75c0,4.37,8,4.37,8,8.75c0,4.38-8,4.38-8,8.75c0,4.37,8,4.37,8,8.75c0,4.37-8,4.37-8,8.75s8,4.37,8,8.75
					c0,4.37-8,4.37-8,8.75c0,4.38,8,4.38,8,8.75c0,4.38-8,4.38-8,8.75c0,4.38,8,4.38,8,8.75c0,4.38-8,4.38-8,8.76
					c0,4.38,8,4.38,8,8.76"/>
			</g>
		</g>
	</g>
	<g class="st3">
		<g>
			<path class="st1" d="M719.11,404.13c-1.25,0-2.26,1.01-2.26,2.26c0,1.25,1.01,2.26,2.26,2.26c1.25,0,2.26-1.01,2.26-2.26
				C721.37,405.14,720.36,404.13,719.11,404.13z"/>
			<path class="st1" d="M729.24,408.65c1.25,0,2.26-1.01,2.26-2.26c0-1.25-1.01-2.26-2.26-2.26s-2.26,1.01-2.26,2.26
				C726.98,407.63,728,408.65,729.24,408.65z"/>
			<path class="st1" d="M719.11,415.64c-1.25,0-2.26,1.01-2.26,2.26s1.01,2.26,2.26,2.26c1.25,0,2.26-1.01,2.26-2.26
				S720.36,415.64,719.11,415.64z"/>
			<path class="st1" d="M729.24,415.64c-1.25,0-2.26,1.01-2.26,2.26s1.01,2.26,2.26,2.26s2.26-1.01,2.26-2.26
				S730.49,415.64,729.24,415.64z"/>
			<path class="st1" d="M719.11,427.15c-1.25,0-2.26,1.01-2.26,2.26s1.01,2.26,2.26,2.26c1.25,0,2.26-1.01,2.26-2.26
				S720.36,427.15,719.11,427.15z"/>
			<path class="st1" d="M729.24,427.15c-1.25,0-2.26,1.01-2.26,2.26s1.01,2.26,2.26,2.26s2.26-1.01,2.26-2.26
				S730.49,427.15,729.24,427.15z"/>
			<path class="st1" d="M719.11,438.67c-1.25,0-2.26,1.01-2.26,2.26c0,1.25,1.01,2.26,2.26,2.26c1.25,0,2.26-1.01,2.26-2.26
				C721.37,439.68,720.36,438.67,719.11,438.67z"/>
			<path class="st1" d="M729.24,438.67c-1.25,0-2.26,1.01-2.26,2.26c0,1.25,1.01,2.26,2.26,2.26s2.26-1.01,2.26-2.26
				C731.5,439.68,730.49,438.67,729.24,438.67z"/>
			<path class="st1" d="M719.11,450.18c-1.25,0-2.26,1.01-2.26,2.26s1.01,2.26,2.26,2.26c1.25,0,2.26-1.01,2.26-2.26
				S720.36,450.18,719.11,450.18z"/>
			<path class="st1" d="M729.24,450.18c-1.25,0-2.26,1.01-2.26,2.26s1.01,2.26,2.26,2.26s2.26-1.01,2.26-2.26
				S730.49,450.18,729.24,450.18z"/>
			<path class="st1" d="M719.11,461.69c-1.25,0-2.26,1.01-2.26,2.26s1.01,2.26,2.26,2.26c1.25,0,2.26-1.01,2.26-2.26
				S720.36,461.69,719.11,461.69z"/>
			<path class="st1" d="M729.24,461.69c-1.25,0-2.26,1.01-2.26,2.26s1.01,2.26,2.26,2.26s2.26-1.01,2.26-2.26
				S730.49,461.69,729.24,461.69z"/>
			<path class="st1" d="M719.11,473.21c-1.25,0-2.26,1.01-2.26,2.26c0,1.25,1.01,2.26,2.26,2.26c1.25,0,2.26-1.01,2.26-2.26
				C721.37,474.22,720.36,473.21,719.11,473.21z"/>
			<path class="st1" d="M729.24,473.21c-1.25,0-2.26,1.01-2.26,2.26c0,1.25,1.01,2.26,2.26,2.26s2.26-1.01,2.26-2.26
				C731.5,474.22,730.49,473.21,729.24,473.21z"/>
		</g>
		<g>
			<path class="st1" d="M30.11,19.13c-1.25,0-2.26,1.01-2.26,2.26c0,1.25,1.01,2.26,2.26,2.26c1.25,0,2.26-1.01,2.26-2.26
				C32.37,20.14,31.36,19.13,30.11,19.13z"/>
			<path class="st1" d="M40.24,23.65c1.25,0,2.26-1.01,2.26-2.26c0-1.25-1.01-2.26-2.26-2.26c-1.25,0-2.26,1.01-2.26,2.26
				C37.98,22.63,39,23.65,40.24,23.65z"/>
			<path class="st1" d="M30.11,30.64c-1.25,0-2.26,1.01-2.26,2.26c0,1.25,1.01,2.26,2.26,2.26c1.25,0,2.26-1.01,2.26-2.26
				C32.37,31.66,31.36,30.64,30.11,30.64z"/>
			<path class="st1" d="M40.24,30.64c-1.25,0-2.26,1.01-2.26,2.26c0,1.25,1.01,2.26,2.26,2.26c1.25,0,2.26-1.01,2.26-2.26
				C42.5,31.66,41.49,30.64,40.24,30.64z"/>
			<path class="st1" d="M30.11,42.15c-1.25,0-2.26,1.01-2.26,2.26c0,1.25,1.01,2.26,2.26,2.26c1.25,0,2.26-1.01,2.26-2.26
				C32.37,43.17,31.36,42.15,30.11,42.15z"/>
			<path class="st1" d="M40.24,42.15c-1.25,0-2.26,1.01-2.26,2.26c0,1.25,1.01,2.26,2.26,2.26c1.25,0,2.26-1.01,2.26-2.26
				C42.5,43.17,41.49,42.15,40.24,42.15z"/>
			<path class="st1" d="M30.11,53.67c-1.25,0-2.26,1.01-2.26,2.26s1.01,2.26,2.26,2.26c1.25,0,2.26-1.01,2.26-2.26
				S31.36,53.67,30.11,53.67z"/>
			<path class="st1" d="M40.24,53.67c-1.25,0-2.26,1.01-2.26,2.26s1.01,2.26,2.26,2.26c1.25,0,2.26-1.01,2.26-2.26
				S41.49,53.67,40.24,53.67z"/>
			<path class="st1" d="M30.11,65.18c-1.25,0-2.26,1.01-2.26,2.26s1.01,2.26,2.26,2.26c1.25,0,2.26-1.01,2.26-2.26
				S31.36,65.18,30.11,65.18z"/>
			<path class="st1" d="M40.24,65.18c-1.25,0-2.26,1.01-2.26,2.26S39,69.7,40.24,69.7c1.25,0,2.26-1.01,2.26-2.26
				S41.49,65.18,40.24,65.18z"/>
			<path class="st1" d="M30.11,76.69c-1.25,0-2.26,1.01-2.26,2.26s1.01,2.26,2.26,2.26c1.25,0,2.26-1.01,2.26-2.26
				S31.36,76.69,30.11,76.69z"/>
			<path class="st1" d="M40.24,76.69c-1.25,0-2.26,1.01-2.26,2.26s1.01,2.26,2.26,2.26c1.25,0,2.26-1.01,2.26-2.26
				S41.49,76.69,40.24,76.69z"/>
			<path class="st1" d="M30.11,88.21c-1.25,0-2.26,1.01-2.26,2.26c0,1.25,1.01,2.26,2.26,2.26c1.25,0,2.26-1.01,2.26-2.26
				C32.37,89.22,31.36,88.21,30.11,88.21z"/>
			<path class="st1" d="M40.24,88.21c-1.25,0-2.26,1.01-2.26,2.26c0,1.25,1.01,2.26,2.26,2.26c1.25,0,2.26-1.01,2.26-2.26
				C42.5,89.22,41.49,88.21,40.24,88.21z"/>
		</g>
	</g>
</g>
</svg>
