<?xml version="1.0" encoding="utf-8"?>
<!-- Generator: Adobe Illustrator 25.0.0, SVG Export Plug-In . SVG Version: 6.00 Build 0)  -->
<svg version="1.1" xmlns="http://www.w3.org/2000/svg" xmlns:xlink="http://www.w3.org/1999/xlink" x="0px" y="0px"
	 viewBox="0 0 587 368.5" style="enable-background:new 0 0 587 368.5;" xml:space="preserve">
<g id="Layer_1">
	<g>
		<path d="M174,148.1v71.6h-14.6v-71.6H174z"/>
		<path d="M233.5,171.4v48.4c0,15-11.7,24.2-26,24.2c-13.8,0-24.1-8.6-25.1-20.7l14.5,0.1c0.6,5.1,5.1,7.4,11.1,7.4
			c5.6,0,10.9-3,10.9-10.9v-6.1c-3.7,2.4-8.5,3.8-13.8,3.8c-13.3,0-24-10.8-24-23.2c0-14.4,10.7-24.1,24-24.1
			c5.3,0,10.1,1.4,13.8,3.8v-2.6L233.5,171.4z M218.9,199.9v-11.8c-3-4.3-7.1-5.8-11.2-5.8c-7.2,0-12.1,4.8-12.1,12.1
			c0,5.4,5,11.2,12.1,11.2C211.8,205.6,215.9,204.2,218.9,199.9z"/>
		<path d="M291.7,194.9c0,14.9-11,25.5-25.8,25.5c-14.9,0-25.9-10.6-25.9-25.5c0-14.8,11-25.6,25.9-25.6
			C280.7,169.3,291.7,180.1,291.7,194.9z M277.6,194.9c0-7-4.6-12.7-11.7-12.7c-7.2,0-11.8,5.7-11.8,12.7c0,7.2,4.6,12.6,11.8,12.6
			C273,207.5,277.6,202.1,277.6,194.9z"/>
		<path d="M382.2,171.5v48.1l-14.3,0.1v-2.7c-3.7,2.4-8.5,3.9-13.8,3.9c-13.3,0-24-11.3-24-25.2c0-14,10.7-25.3,24-25.3
			c5.3,0,10.1,1.5,13.8,3.9v-2.7L382.2,171.5z M367.9,203v-14.7c-3-4.3-7.2-5.5-11.4-5.5c-7.3,0-12.4,5.9-12.4,12.9
			c0,6.9,5.1,12.8,12.4,12.8C360.7,208.4,364.9,207.2,367.9,203z"/>
		<path d="M441.1,193.5v26.1H427v-24.4c0-7.9-3.9-12-10.9-12c-3.6,0-7.7,2.1-11.1,6.1v30.3h-14.4v-48.1H405v3.6
			c3.9-3.1,8.5-4.8,13.9-4.8C431.7,170.3,441.1,179.4,441.1,193.5z"/>
		<g>
			<path d="M513.9,149.9h-3.6v8.5h-2.1v-8.5h-3.6V148h9.2V149.9z"/>
			<path d="M526.2,158.4h-2.1v-5.9l-2.7,4.3h-1.3v0l-2.8-4.4l0,5.9h-2.1V148h1.5l4,6.3l4-6.3h1.5V158.4z"/>
		</g>
		<g id="lINT7W_10_">
			<g>
				<polygon points="152.7,219.6 137.8,219.6 128.2,183.6 107.4,219.6 90.8,219.6 122.9,163.9 117.7,144.6 74.4,219.6 57.8,219.6 
					112.7,124.5 127.2,124.5 133.6,148.1 148.6,148.1 138.4,166 				"/>
			</g>
		</g>
		<path d="M499.1,148.1v71.6h-14.6v-2.7c-3.7,2.4-8.5,3.9-13.8,3.9c-13.3,0-24-11.3-24-25.3c0-13.9,10.7-25.2,24-25.2
			c5.3,0,10.1,1.5,13.8,3.9v-26.2H499.1z M484.5,203v-14.8c-3-4.3-7.3-5.5-11.5-5.5c-7.4,0-12.5,5.9-12.5,12.9c0,7.1,5.1,13,12.5,13
			C477.3,208.5,481.5,207.3,484.5,203z"/>
		<path d="M327.5,183.7c-3.2,0.4-10.6,0.8-15,6.8v29.2h-14.4v-48h14.4v3.6c3.3-2.8,8.2-4.5,15-3.8"/>
	</g>
</g>
<g id="Layer_2">
</g>
</svg>
