<?xml version="1.0" encoding="utf-8"?>
<!-- Generator: Adobe Illustrator 25.1.0, SVG Export Plug-In . SVG Version: 6.00 Build 0)  -->
<svg version="1.1" id="Layer_1" xmlns="http://www.w3.org/2000/svg" xmlns:xlink="http://www.w3.org/1999/xlink" x="0px" y="0px"
	 viewBox="0 0 150 50" fill="white" style="enable-background:new 0 0 150 50;" xml:space="preserve">
<g id="Layer_1_1_">
	<g>
		<path class="st0" d="M37.4,13.5v22.8h-4.6V13.5H37.4z"/>
		<path class="st0" d="M56.4,20.9v15.4c0,4.8-3.7,7.7-8.3,7.7c-4.4,0-7.7-2.7-8-6.6l4.6,0c0.2,1.6,1.6,2.4,3.5,2.4
			c1.8,0,3.5-1,3.5-3.5v-1.9c-1.2,0.8-2.7,1.2-4.4,1.2c-4.2,0-7.6-3.4-7.6-7.4c0-4.6,3.4-7.7,7.6-7.7c1.7,0,3.2,0.4,4.4,1.2v-0.8
			L56.4,20.9z M51.7,30v-3.8c-1-1.4-2.3-1.8-3.6-1.8c-2.3,0-3.9,1.5-3.9,3.9c0,1.7,1.6,3.6,3.9,3.6C49.5,31.8,50.8,31.3,51.7,30z"/>
		<path class="st0" d="M74.9,28.4c0,4.7-3.5,8.1-8.2,8.1c-4.7,0-8.2-3.4-8.2-8.1c0-4.7,3.5-8.1,8.2-8.1
			C71.4,20.2,74.9,23.7,74.9,28.4z M70.4,28.4c0-2.2-1.5-4-3.7-4c-2.3,0-3.8,1.8-3.8,4c0,2.3,1.5,4,3.8,4
			C69,32.4,70.4,30.7,70.4,28.4z"/>
		<path class="st0" d="M103.7,20.9v15.3l-4.6,0v-0.9c-1.2,0.8-2.7,1.2-4.4,1.2c-4.2,0-7.6-3.6-7.6-8c0-4.5,3.4-8.1,7.6-8.1
			c1.7,0,3.2,0.5,4.4,1.2V21L103.7,20.9z M99.2,31v-4.7c-1-1.4-2.3-1.8-3.6-1.8c-2.3,0-3.9,1.9-3.9,4.1c0,2.2,1.6,4.1,3.9,4.1
			C96.9,32.7,98.2,32.3,99.2,31z"/>
		<path class="st0" d="M122.4,27.9v8.3H118v-7.8c0-2.5-1.2-3.8-3.5-3.8c-1.1,0-2.5,0.7-3.5,1.9v9.6h-4.6V20.9h4.6v1.1
			c1.2-1,2.7-1.5,4.4-1.5C119.5,20.6,122.4,23.5,122.4,27.9z"/>
		<g>
			<path class="st0" d="M145.6,14.1h-1.1v2.7h-0.7v-2.7h-1.1v-0.6h2.9L145.6,14.1L145.6,14.1z"/>
			<path class="st0" d="M149.5,16.8h-0.7v-1.9l-0.9,1.4h-0.4l0,0l-0.9-1.4v1.9H146v-3.3h0.5l1.3,2l1.3-2h0.5L149.5,16.8L149.5,16.8z
				"/>
		</g>
		<g id="lINT7W_10_">
			<g>
				<polygon class="st0" points="30.7,36.2 25.9,36.2 22.9,24.8 16.3,36.2 11,36.2 21.2,18.5 19.5,12.4 5.8,36.2 0.5,36.2 17.9,6 
					22.6,6 24.6,13.5 29.4,13.5 26.1,19.2 				"/>
			</g>
		</g>
		<path class="st0" d="M140.9,13.5v22.8h-4.6v-0.9c-1.2,0.8-2.7,1.2-4.4,1.2c-4.2,0-7.6-3.6-7.6-8.1c0-4.4,3.4-8,7.6-8
			c1.7,0,3.2,0.5,4.4,1.2v-8.3H140.9z M136.3,31v-4.7c-1-1.4-2.3-1.8-3.7-1.8c-2.4,0-4,1.9-4,4.1c0,2.3,1.6,4.1,4,4.1
			C134,32.7,135.3,32.3,136.3,31z"/>
		<path class="st0" d="M86.3,24.8c-1,0.1-3.4,0.3-4.8,2.2v9.3h-4.6V21h4.6v1.1c1.1-0.9,2.6-1.4,4.8-1.2"/>
	</g>
</g>
</svg>
